<svg xmlns="http://www.w3.org/2000/svg" width="50" height="50" viewBox="0 0 50 50">
    <path
        d="M25.9825 31.75C18.466 31.75 14.1786 26.5886 14 18H17.7651C17.8888 24.3038 20.6646 26.974 22.8632 27.5245V18H26.4085V23.4367C28.5796 23.2027 30.8607 20.7252 31.6302 18H35.1755C34.8855 19.4134 34.3075 20.7516 33.4776 21.931C32.6477 23.1104 31.5837 24.1056 30.3523 24.8544C31.7269 25.5385 32.941 26.5068 33.9145 27.6955C34.888 28.8841 35.5988 30.266 36 31.75H32.0974C31.7373 30.461 31.0054 29.3072 29.9934 28.4331C28.9814 27.559 27.7343 27.0036 26.4085 26.8363V31.75H25.9825V31.75Z" />
</svg>