<svg width="410" height="410" viewBox="0 0 410 410" fill="none" xmlns="http://www.w3.org/2000/svg">
<path opacity="0.3" fill-rule="evenodd" clip-rule="evenodd" d="M205 408C317.114 408 408 317.114 408 205C408 92.8862 317.114 2 205 2C92.8862 2 2 92.8862 2 205C2 317.114 92.8862 408 205 408ZM205 410C318.218 410 410 318.218 410 205C410 91.7816 318.218 0 205 0C91.7816 0 0 91.7816 0 205C0 318.218 91.7816 410 205 410Z" fill="#102F34" fill-opacity="0.4"/>
<path opacity="0.2" fill-rule="evenodd" clip-rule="evenodd" d="M204 202V157H206V202H251V204H206V249H204V204H159V202H204Z" fill="black"/>
</svg>
