<svg xmlns="http://www.w3.org/2000/svg" width="159" height="40" viewBox="0 0 159 40" fill="none">
    <g clip-path="url(#clip0_348_1366)">
        <path
            d="M8.83249 17.5438C13.7105 17.5438 17.665 13.6165 17.665 8.77188C17.665 3.9273 13.7105 0 8.83249 0C3.95444 0 0 3.9273 0 8.77188C0 13.6165 3.95444 17.5438 8.83249 17.5438Z"
            fill="black" />
        <path d="M0 22.4551H17.665C17.665 32.1376 9.74943 39.9988 0 39.9988V22.4551Z" fill="black" />
        <path
            d="M42.7498 19.9969C42.7498 31.0423 33.7365 39.9938 22.6147 39.9938V0C33.7365 0 42.7498 8.95152 42.7498 19.9969Z"
            fill="black" />
        <path d="M57.583 15.7085V3.83301H59.9408V15.7085H57.583Z" fill="black" />
        <path
            d="M66.807 6.99609C67.7551 6.99609 68.5224 7.30584 69.1149 7.93151C69.7325 8.56339 70.0381 9.42447 70.0381 10.5086V15.7184H67.8362V10.7811C67.8362 10.2298 67.6865 9.79616 67.3809 9.49261C67.0815 9.18906 66.6635 9.03419 66.1458 9.03419C65.5657 9.03419 65.1041 9.21384 64.7735 9.56695C64.4367 9.92625 64.2683 10.4466 64.2683 11.1342V15.7122H62.0664V7.2315H64.2683V8.1855C64.7923 7.39256 65.6406 6.99609 66.8132 6.99609H66.807Z"
            fill="black" />
        <path
            d="M78.3904 8.23198V3.83984H80.5922V15.7153H78.3904V14.7118C77.7416 15.5357 76.8185 15.9507 75.6208 15.9507C74.4232 15.9507 73.4876 15.5233 72.6642 14.6622C71.8533 13.7949 71.4541 12.7294 71.4541 11.4719C71.4541 10.2143 71.8595 9.17359 72.6642 8.30012C73.4813 7.42665 74.4669 6.99301 75.6208 6.99301C76.7748 6.99301 77.7416 7.40806 78.3904 8.23198ZM74.3234 13.2002C74.7912 13.6401 75.3589 13.8631 76.0325 13.8631C76.7062 13.8631 77.2801 13.6401 77.7229 13.2002C78.1658 12.748 78.3904 12.1719 78.3904 11.4719C78.3904 10.7719 78.1658 10.2019 77.7229 9.7559C77.2801 9.30368 76.7124 9.07447 76.0325 9.07447C75.3526 9.07447 74.7788 9.30368 74.3234 9.7559C73.8805 10.1957 73.656 10.7657 73.656 11.4719C73.656 12.1781 73.8805 12.748 74.3234 13.2002Z"
            fill="black" />
        <path
            d="M90.9074 12.3732H84.4701C84.7571 13.4325 85.5555 13.9653 86.8779 13.9653C87.7199 13.9653 88.3562 13.6803 88.7928 13.1166L90.5706 14.1325C89.7285 15.3405 88.4872 15.9476 86.8467 15.9476C85.437 15.9476 84.3017 15.5264 83.4472 14.6777C82.5926 13.829 82.1685 12.7635 82.1685 11.475C82.1685 10.1864 82.5864 9.1457 83.4347 8.28462C84.2643 7.42354 85.3496 6.99609 86.6783 6.99609C88.0069 6.99609 88.9737 7.42973 89.7721 8.28462C90.5893 9.1457 91.0009 10.205 91.0009 11.475C91.0009 11.7104 90.9698 12.0139 90.9136 12.3732H90.9074ZM84.4327 10.6758H88.7866C88.6618 10.1245 88.4061 9.69704 88.0256 9.40588C87.6451 9.11472 87.1897 8.96605 86.6658 8.96605C86.0732 8.96605 85.5867 9.11473 85.1999 9.41208C84.8132 9.70943 84.5575 10.1307 84.4327 10.6758Z"
            fill="black" />
        <path
            d="M97.5034 6.99609C98.6511 6.99609 99.6304 7.42973 100.441 8.3032C101.258 9.17667 101.67 10.2298 101.67 11.475C101.67 12.7201 101.258 13.8042 100.441 14.6653C99.6429 15.5264 98.6636 15.9538 97.5034 15.9538C96.3432 15.9538 95.3826 15.5388 94.7339 14.7148V19.107H92.532V7.2315H94.7339V8.23506C95.3826 7.41115 96.3058 6.99609 97.5034 6.99609ZM95.4013 13.2033C95.8442 13.6431 96.4118 13.8662 97.0917 13.8662C97.7716 13.8662 98.3392 13.6431 98.7821 13.2033C99.2374 12.7511 99.4682 12.175 99.4682 11.475C99.4682 10.7749 99.2374 10.205 98.7821 9.75899C98.3392 9.30676 97.7716 9.07756 97.0917 9.07756C96.4118 9.07756 95.8442 9.30676 95.4013 9.75899C94.9584 10.1988 94.7339 10.7687 94.7339 11.475C94.7339 12.1812 94.9584 12.7511 95.4013 13.2033Z"
            fill="black" />
        <path
            d="M111.532 12.3732H105.095C105.382 13.4325 106.18 13.9653 107.503 13.9653C108.345 13.9653 108.981 13.6803 109.418 13.1166L111.196 14.1325C110.353 15.3405 109.112 15.9476 107.472 15.9476C106.062 15.9476 104.927 15.5264 104.072 14.6777C103.218 13.829 102.793 12.7635 102.793 11.475C102.793 10.1864 103.211 9.1457 104.06 8.28462C104.889 7.42354 105.975 6.99609 107.303 6.99609C108.632 6.99609 109.599 7.42973 110.397 8.28462C111.214 9.1457 111.626 10.205 111.626 11.475C111.626 11.7104 111.595 12.0139 111.539 12.3732H111.532ZM105.058 10.6758H109.412C109.287 10.1245 109.031 9.69704 108.651 9.40588C108.27 9.11472 107.815 8.96605 107.291 8.96605C106.698 8.96605 106.212 9.11473 105.825 9.41208C105.438 9.70943 105.182 10.1307 105.058 10.6758Z"
            fill="black" />
        <path
            d="M117.898 6.99609C118.846 6.99609 119.613 7.30584 120.206 7.93151C120.823 8.56339 121.129 9.42447 121.129 10.5086V15.7184H118.927V10.7811C118.927 10.2298 118.777 9.79616 118.471 9.49261C118.172 9.18906 117.754 9.03419 117.236 9.03419C116.656 9.03419 116.195 9.21384 115.864 9.56695C115.527 9.92625 115.359 10.4466 115.359 11.1342V15.7122H113.157V7.2315H115.359V8.1855C115.883 7.39256 116.731 6.99609 117.904 6.99609H117.898Z"
            fill="black" />
        <path
            d="M129.481 8.23198V3.83984H131.683V15.7153H129.481V14.7118C128.832 15.5357 127.909 15.9507 126.711 15.9507C125.514 15.9507 124.578 15.5233 123.755 14.6622C122.944 13.7949 122.545 12.7294 122.545 11.4719C122.545 10.2143 122.95 9.17359 123.755 8.30012C124.572 7.42665 125.557 6.99301 126.711 6.99301C127.865 6.99301 128.832 7.40806 129.481 8.23198ZM125.414 13.2002C125.882 13.6401 126.449 13.8631 127.123 13.8631C127.797 13.8631 128.371 13.6401 128.813 13.2002C129.256 12.748 129.481 12.1719 129.481 11.4719C129.481 10.7719 129.256 10.2019 128.813 9.7559C128.371 9.30368 127.803 9.07447 127.123 9.07447C126.443 9.07447 125.869 9.30368 125.414 9.7559C124.971 10.1957 124.747 10.7657 124.747 11.4719C124.747 12.1781 124.971 12.748 125.414 13.2002Z"
            fill="black" />
        <path
            d="M141.998 12.3732H135.561C135.848 13.4325 136.646 13.9653 137.968 13.9653C138.811 13.9653 139.447 13.6803 139.883 13.1166L141.661 14.1325C140.819 15.3405 139.578 15.9476 137.937 15.9476C136.528 15.9476 135.392 15.5264 134.538 14.6777C133.683 13.829 133.259 12.7635 133.259 11.475C133.259 10.1864 133.677 9.1457 134.525 8.28462C135.355 7.42354 136.44 6.99609 137.769 6.99609C139.097 6.99609 140.064 7.42973 140.863 8.28462C141.68 9.1457 142.092 10.205 142.092 11.475C142.092 11.7104 142.06 12.0139 142.004 12.3732H141.998ZM135.523 10.6758H139.877C139.752 10.1245 139.497 9.69704 139.116 9.40588C138.736 9.11472 138.28 8.96605 137.756 8.96605C137.164 8.96605 136.677 9.11473 136.291 9.41208C135.904 9.70943 135.648 10.1307 135.523 10.6758Z"
            fill="black" />
        <path
            d="M148.376 6.99609C149.324 6.99609 150.091 7.30584 150.684 7.93151C151.301 8.56339 151.607 9.42447 151.607 10.5086V15.7184H149.405V10.7811C149.405 10.2298 149.255 9.79616 148.95 9.49261C148.65 9.18906 148.232 9.03419 147.715 9.03419C147.135 9.03419 146.673 9.21384 146.342 9.56695C146.006 9.92625 145.837 10.4466 145.837 11.1342V15.7122H143.635V7.2315H145.837V8.1855C146.361 7.39256 147.209 6.99609 148.382 6.99609H148.376Z"
            fill="black" />
        <path
            d="M158.363 7.23199V9.33823H156.435V12.8693C156.435 13.1604 156.51 13.3773 156.66 13.5135C156.809 13.6498 157.022 13.7242 157.308 13.7428C157.595 13.7613 157.945 13.7551 158.369 13.7366V15.7251C156.878 15.8924 155.818 15.7561 155.181 15.31C154.545 14.864 154.233 14.0525 154.233 12.8755V9.34443H152.749V7.23819H154.233V5.52222L156.435 4.85938V7.23199H158.363Z"
            fill="black" />
        <path
            d="M57.583 24.1904H62.3298C63.9703 24.1904 65.3364 24.7604 66.428 25.9064C67.532 27.0401 68.0872 28.4463 68.0872 30.1313C68.0872 31.8163 67.532 33.2225 66.428 34.3561C65.3364 35.496 63.9703 36.0721 62.3298 36.0721H57.583V24.1966V24.1904ZM59.9408 33.8234H62.3298C63.3653 33.8234 64.2074 33.4827 64.8561 32.8074C65.5048 32.1074 65.8292 31.2154 65.8292 30.1251C65.8292 29.0348 65.5048 28.1427 64.8561 27.4613C64.2074 26.7737 63.3653 26.4268 62.3298 26.4268H59.9408V33.8234Z"
            fill="black" />
        <path
            d="M70.7607 26.5658C70.3989 26.5658 70.0808 26.4358 69.8125 26.1694C69.5443 25.903 69.4133 25.5871 69.4133 25.2278C69.4133 24.8685 69.5443 24.5463 69.8125 24.28C70.0808 24.0074 70.3989 23.8711 70.7607 23.8711C71.1224 23.8711 71.4593 24.0074 71.7275 24.28C71.9957 24.5525 72.1267 24.8685 72.1267 25.2278C72.1267 25.5871 71.9957 25.903 71.7275 26.1694C71.4593 26.4358 71.1412 26.5658 70.7607 26.5658ZM71.871 36.0625H69.6691V27.5818H71.871V36.0625Z"
            fill="black" />
        <path
            d="M76.0859 27.5843V29.0462C76.2793 28.5135 76.6099 28.1108 77.0777 27.832C77.5455 27.5533 78.082 27.417 78.6808 27.417V29.8578C78.0071 29.7648 77.4083 29.9011 76.8719 30.2666C76.3479 30.6197 76.0859 31.202 76.0859 32.0136V36.065H73.884V27.5843H76.0859Z"
            fill="black" />
        <path
            d="M87.9355 32.7241H81.4982C81.7852 33.7896 82.5836 34.3162 83.906 34.3162C84.748 34.3162 85.3843 34.0312 85.8209 33.4675L87.5986 34.4835C86.7566 35.6976 85.5153 36.2985 83.8748 36.2985C82.4651 36.2985 81.3298 35.8711 80.4753 35.0286C79.6207 34.1861 79.1965 33.1144 79.1965 31.8197C79.1965 30.525 79.6145 29.4904 80.4628 28.6293C81.2924 27.7683 82.3777 27.3408 83.7063 27.3408C85.035 27.3408 86.0018 27.7683 86.8002 28.6293C87.6173 29.4904 88.029 30.5497 88.029 31.8197C88.029 32.0551 87.9978 32.3586 87.9417 32.7179L87.9355 32.7241ZM81.4608 31.0267H85.8147C85.6899 30.4754 85.4342 30.048 85.0537 29.7568C84.6732 29.4656 84.2178 29.317 83.6939 29.317C83.1013 29.317 82.6148 29.4656 82.228 29.7692C81.8413 30.0665 81.5856 30.4878 81.4608 31.0329V31.0267Z"
            fill="black" />
        <path
            d="M93.5533 36.3112C92.2683 36.3112 91.1892 35.8776 90.3222 35.0227C89.4676 34.1616 89.0435 33.1023 89.0435 31.8324C89.0435 30.5624 89.4676 29.5031 90.3222 28.642C91.1892 27.781 92.2621 27.3535 93.5533 27.3535C94.3829 27.3535 95.1439 27.5517 95.8238 27.9482C96.5099 28.3447 97.0276 28.8774 97.3769 29.5403L95.4807 30.643C95.3123 30.2899 95.0503 30.0173 94.701 29.8129C94.3517 29.6084 93.965 29.5093 93.5283 29.5093C92.8671 29.5093 92.3182 29.7261 91.8878 30.1598C91.4574 30.5934 91.2391 31.1509 91.2391 31.8324C91.2391 32.5138 91.4574 33.0404 91.8878 33.4926C92.3182 33.92 92.8671 34.1369 93.5283 34.1369C93.9712 34.1369 94.3704 34.0377 94.7135 33.8395C95.0628 33.6413 95.3185 33.3687 95.4932 33.0156L97.4081 34.0997C97.0339 34.7811 96.4974 35.3139 95.8113 35.7103C95.1252 36.1068 94.3704 36.305 93.547 36.305L93.5533 36.3112Z"
            fill="black" />
        <path
            d="M103.471 27.5829V29.6892H101.544V33.2202C101.544 33.5114 101.618 33.7282 101.768 33.8645C101.918 34.0008 102.13 34.0751 102.417 34.0937C102.704 34.1123 103.053 34.1061 103.477 34.0875V36.0698C101.986 36.2371 100.926 36.1008 100.29 35.6548C99.6536 35.2087 99.3417 34.3972 99.3417 33.2202V29.6892H97.8572V27.5829H99.3417V25.8669L101.544 25.2041V27.5767H103.471V27.5829Z"
            fill="black" />
        <path
            d="M112.033 35.0227C111.166 35.8838 110.1 36.3112 108.821 36.3112C107.542 36.3112 106.476 35.8776 105.609 35.0227C104.742 34.1616 104.311 33.1023 104.311 31.8324C104.311 30.5624 104.742 29.5217 105.609 28.6606C106.488 27.7933 107.555 27.3535 108.821 27.3535C110.087 27.3535 111.154 27.7872 112.033 28.6606C112.913 29.5341 113.35 30.5872 113.35 31.8324C113.35 33.0775 112.913 34.1492 112.033 35.0227ZM107.168 33.5112C107.611 33.951 108.166 34.174 108.827 34.174C109.489 34.174 110.037 33.951 110.487 33.5112C110.929 33.0713 111.154 32.5076 111.154 31.8324C111.154 31.1571 110.929 30.5934 110.487 30.1536C110.044 29.7137 109.489 29.4907 108.827 29.4907C108.166 29.4907 107.617 29.7137 107.168 30.1536C106.738 30.6058 106.519 31.1633 106.519 31.8324C106.519 32.5014 106.738 33.059 107.168 33.5112Z"
            fill="black" />
        <path
            d="M117.106 27.5843V29.0462C117.3 28.5135 117.63 28.1108 118.098 27.832C118.566 27.5533 119.102 27.417 119.701 27.417V29.8578C119.028 29.7648 118.429 29.9011 117.892 30.2666C117.368 30.6197 117.106 31.202 117.106 32.0136V36.065H114.905V27.5843H117.106Z"
            fill="black" />
    </g>
    <defs>
        <clipPath id="clip0_348_1366">
            <rect width="158.367" height="40" fill="white" />
        </clipPath>
    </defs>
</svg>