<svg xmlns="http://www.w3.org/2000/svg" width="90" height="23" viewBox="0 0 90 23" fill="none">
    <g clip-path="url(#clip0_401_752)">
        <path fill-rule="evenodd" clip-rule="evenodd"
            d="M48.3875 5.45056C48.604 5.67702 50.5522 11.0722 50.7559 11.7383C50.9588 12.4519 51.2454 13.1365 51.6091 13.7765C52.284 13.9363 52.3476 13.2303 52.5514 12.6708C53.6592 9.64683 55.34 5.23741 56.1804 2.26672C56.7661 0.828 56.8171 0.441676 55.7602 0.441676C54.7033 0.441676 54.8179 1.16104 54.3977 2.09354C54.0284 3.8653 52.6023 7.60864 52.0802 9.32711C52.0802 9.55358 52.0802 9.55358 51.8128 9.55358C50.9342 6.99585 49.9155 3.8653 48.9223 1.33422C48.6549 0.841321 48.1838 0.734749 47.8655 1.84043C47.3306 3.59887 46.5921 5.69035 46.0191 7.3955C46.0191 7.3955 45.3315 9.55358 45.2806 9.66015C44.9164 9.04761 44.6498 8.37724 44.4911 7.67525C43.7016 5.63706 43.014 3.43901 42.3391 1.40082C42.1736 1.0145 42.1736 0.788035 41.8043 0.56157C41.4342 0.418074 41.034 0.381267 40.6456 0.454998C39.6014 0.628177 40.2763 1.5074 40.4928 2.16015C41.7661 5.74363 43.1795 10.0465 44.593 13.4568C44.626 13.5413 44.6798 13.6152 44.7489 13.671C44.818 13.7268 44.8999 13.7626 44.9864 13.7748C45.0729 13.7869 45.1609 13.775 45.2416 13.7402C45.3224 13.7055 45.3929 13.649 45.4461 13.5767C45.6498 13.1637 48.2347 5.45056 48.3875 5.45056Z"
            fill="white" />
        <path fill-rule="evenodd" clip-rule="evenodd"
            d="M0.204201 0.66642C0.151566 0.888338 0.169445 1.12215 0.255135 1.33249C0.471604 2.265 -0.165069 12.8955 0.000466235 13.3218C0.515884 13.5643 1.09376 13.6206 1.64308 13.4817C1.89775 13.2019 1.79588 12.9355 1.79588 12.4959C1.79588 10.6176 1.94868 8.80585 1.94868 6.87424C2.01235 6.15488 2.06328 5.66198 2.06328 5.22237C2.06328 4.78276 2.06328 4.83605 2.16515 4.72948C2.26702 4.6229 3.9351 7.6602 4.10064 7.99324C4.41897 8.64599 5.04291 9.64511 5.46312 10.4178C6.09979 11.63 6.41812 10.8041 6.57092 10.5243C6.9402 10.0314 9.79249 4.79608 9.99622 4.68951C10.1872 4.90265 10.1872 10.138 10.1872 10.5243C10.1872 13.3884 9.86889 13.6682 11.6006 13.5483C12.1354 13.5483 12.1864 13.1087 12.1354 12.6158C12.1354 11.6833 12.1354 10.6309 12.1354 9.69839C11.9954 7.32717 11.8935 4.6229 11.8935 2.265C11.8935 1.98525 11.9954 0.93285 11.9954 0.772992C11.8395 0.589215 11.6283 0.466599 11.3968 0.42542C11.1652 0.384241 10.9272 0.426965 10.722 0.546527C10.3528 0.772992 10.2509 1.26589 9.98349 1.59892C8.91388 3.58383 7.475 5.83516 6.46906 7.71349C6.09979 8.37956 6.09979 8.1531 5.78145 7.71349C5.09385 6.66109 4.2025 4.84937 3.57856 3.79697L2.30522 1.59892C2.12822 1.21695 1.90107 0.862721 1.63035 0.546527C1.27381 0.280097 0.573471 0.493241 0.204201 0.66642Z"
            fill="white" />
        <path fill-rule="evenodd" clip-rule="evenodd"
            d="M67.396 6.83216C67.8467 6.44744 68.3813 6.18531 68.9523 6.06909C69.5232 5.95288 70.1128 5.9862 70.6685 6.16608C72.3493 6.93873 72.5658 9.53642 71.8272 10.802C71.5127 11.2952 71.0596 11.6741 70.5305 11.8865C70.0013 12.0988 69.4222 12.1342 68.8731 11.9876C68.3411 11.8777 67.8376 11.6507 67.396 11.3215V6.83216ZM67.396 4.95383C67.3166 3.50297 67.3166 2.04855 67.396 0.597698C67.396 -0.00176919 67.1923 -0.108341 66.6575 0.104803C65.3841 0.664305 65.3841 0.43784 65.5624 1.6501C65.6642 2.26288 65.5624 9.36324 65.5624 10.3624C65.5624 12.3339 65.295 12.7869 68.0327 13.6128C68.8122 13.7838 69.6168 13.7882 70.398 13.6257C71.1791 13.4632 71.9209 13.137 72.5785 12.667C75.2653 10.3624 74.5267 3.86146 69.6244 4.35436C69.197 4.37855 68.7717 4.43195 68.351 4.51422C68.1855 4.5675 67.5615 4.95383 67.4851 4.95383H67.396Z"
            fill="white" />
        <path fill-rule="evenodd" clip-rule="evenodd"
            d="M30.2662 13.4417C30.4653 12.747 30.5217 12.0161 30.4317 11.297C30.3796 10.5431 30.3796 9.78621 30.4317 9.03231C30.5845 9.03231 30.75 9.31206 31.0684 9.64509C31.3867 9.97813 34.0098 12.8423 34.43 13.162C34.5766 13.3047 34.7533 13.4093 34.9458 13.4671C35.1383 13.525 35.3411 13.5346 35.5378 13.495C35.9071 13.495 36.4928 13.495 36.6966 13.2286C36.6966 12.8423 35.958 12.2295 35.6397 11.8964C35.3213 11.5634 34.9139 11.1371 34.5446 10.6842C33.7347 9.93847 32.9772 9.13265 32.2781 8.27298C32.2781 8.15309 35.1685 5.60868 35.7034 5.12911C35.9071 4.90264 36.1236 4.84936 36.0726 4.51632C35.4172 4.30481 34.7161 4.30481 34.0607 4.51632C33.8061 4.63621 32.0616 6.28808 31.5904 6.72769C31.4376 6.88755 30.5336 7.88666 30.4317 7.83337C30.2789 7.32716 30.4317 0.439944 30.3298 0.0536206C30.228 -0.332703 28.4326 0.280086 28.4835 0.946161C28.5833 1.41415 28.6345 1.89206 28.6363 2.37156V11.8964C28.6363 12.2295 28.5344 13.2286 28.7509 13.3884C29.2463 13.5209 29.7634 13.5391 30.2662 13.4417Z"
            fill="white" />
        <path fill-rule="evenodd" clip-rule="evenodd"
            d="M16.5481 8.92533C17.1339 8.76547 19.0948 9.25837 19.184 9.80455C19.2349 10.3939 19.2349 10.9869 19.184 11.5763C18.8147 12.0692 16.2807 13.055 15.4403 11.2966C15.3271 11.0468 15.2683 10.7737 15.2683 10.4973C15.2683 10.2208 15.3271 9.94777 15.4403 9.69798C15.5626 9.49487 15.7245 9.32106 15.9154 9.18791C16.1063 9.05477 16.3219 8.96529 16.5481 8.92533ZM19.2349 8.25925C18.7401 7.91633 18.1867 7.67659 17.605 7.55322C16.8801 7.46924 16.1467 7.5234 15.4403 7.71307C14.8455 7.89129 14.3211 8.26448 13.9441 8.77774C13.5672 9.29101 13.3576 9.91727 13.3462 10.5644C13.3348 11.2116 13.5222 11.8455 13.8808 12.373C14.2394 12.9004 14.7504 13.2936 15.3385 13.4946C16.3456 13.8539 17.4382 13.8539 18.4454 13.4946C18.6619 13.388 19.0821 13.1083 19.2349 13.055C19.3877 13.0017 19.4514 13.4413 19.6551 13.5479C19.8588 13.6545 20.8138 13.5479 21.0812 13.2815C21.3486 13.015 21.3996 13.055 21.234 12.6687C20.9877 12.1589 20.8987 11.5817 20.9794 11.0168V7.047C21.046 6.4849 20.9147 5.91666 20.6101 5.44842C19.6042 3.35695 13.543 4.18288 14.0269 5.95464C14.5108 7.7264 15.3003 5.34185 17.9743 5.67489C19.4132 5.83474 19.2604 7.27346 19.2604 8.25925H19.2349Z"
            fill="white" />
        <path fill-rule="evenodd" clip-rule="evenodd"
            d="M81.5714 7.99399H77.2038C77.2623 7.44701 77.5009 6.93836 77.8787 6.55527C78.291 6.17697 78.809 5.94803 79.3557 5.90251C79.6405 5.8779 79.9271 5.91359 80.1984 6.00743C80.4697 6.10127 80.7201 6.25135 80.9347 6.44869C81.1507 6.63465 81.3212 6.87188 81.4319 7.14066C81.5427 7.40944 81.5905 7.70199 81.5714 7.99399ZM77.0892 9.41939C77.4075 9.25953 82.1826 9.41939 83.0484 9.41939C83.9143 9.41939 83.5196 6.44869 81.9406 5.23644C81.2956 4.73332 80.5276 4.43132 79.7255 4.36531C78.9234 4.2993 78.1198 4.47197 77.4075 4.86338C76.6952 5.25479 76.1032 5.84899 75.6999 6.57737C75.2966 7.30574 75.0984 8.1386 75.1282 8.97978C75.098 9.79677 75.2797 10.6071 75.6541 11.3248C76.0285 12.0425 76.5816 12.6407 77.2547 13.0562C78.6681 14.0553 82.4627 14.002 82.9338 12.4567C83.5196 10.4718 82.1444 11.5775 81.6605 11.7906C81.2536 11.9651 80.8247 12.0773 80.3872 12.1236C77.5731 12.4567 76.8855 9.859 77.0892 9.41939Z"
            fill="white" />
        <path fill-rule="evenodd" clip-rule="evenodd"
            d="M57.9739 7.99029C58.0186 7.42131 58.2658 6.89063 58.6667 6.5033C59.0676 6.11597 59.5929 5.90024 60.1386 5.89882C61.2337 5.77892 62.507 6.77803 62.2905 7.99029H57.9739ZM57.7574 9.32244C58.0248 9.32244 62.9781 9.32244 63.6657 9.32244C64.3534 9.32244 64.2388 8.88283 64.1878 8.33665C64.1506 7.59698 63.9304 6.8801 63.5487 6.25623C63.1671 5.63237 62.6371 5.12292 62.0107 4.77777C61.3842 4.43263 60.6828 4.26364 59.9752 4.28735C59.2676 4.31106 58.5779 4.52666 57.9739 4.91303C57.2947 5.33282 56.7392 5.94037 56.3686 6.66892C55.9979 7.39746 55.8264 8.2188 55.8729 9.04269C55.8188 9.85598 55.9939 10.668 56.3764 11.3783C56.7588 12.0886 57.332 12.666 58.0248 13.0391C59.8202 14.1981 63.3474 13.7052 63.6657 12.3864C63.6657 12.0001 63.9204 11.0542 63.3474 11.2807C62.6552 11.6901 61.9018 11.9738 61.1191 12.12C60.7018 12.1783 60.2776 12.1494 59.8711 12.0351C59.4645 11.9208 59.0837 11.7232 58.7506 11.4539C58.2922 11.0676 57.5537 9.90859 57.7574 9.32244Z"
            fill="white" />
        <path fill-rule="evenodd" clip-rule="evenodd"
            d="M86.3566 13.494C86.675 13.161 86.624 13.0011 86.624 12.5082V11.1761C86.624 9.41764 86.3057 6.50023 88.2539 6.06062C88.6741 5.95405 88.776 6.32705 89.3108 6.22048C89.6262 5.92446 89.8631 5.54816 89.9984 5.12812C89.9984 4.28886 88.7251 4.129 87.5663 4.67518C87.197 4.84836 86.8914 5.44783 86.624 5.50112C86.624 5.00822 86.7259 4.79508 86.4076 4.35547C85.9994 4.39641 85.6044 4.52813 85.2488 4.74179C84.7268 5.00822 84.6249 5.00822 84.7268 5.6743C84.8286 6.34037 84.7268 10.9096 84.7268 12.002C84.7777 13.6672 84.7777 13.6139 86.3566 13.494Z"
            fill="white" />
        <path fill-rule="evenodd" clip-rule="evenodd"
            d="M24.271 13.4397V13.3332C24.4188 11.9802 24.4571 10.6165 24.3856 9.25677C24.3856 8.20438 24.6403 6.49923 25.7481 6.16619C26.6394 5.83315 26.6904 6.71237 27.2761 6.16619C28.6386 4.67418 26.805 4.07471 25.6972 4.56761C24.5893 5.0605 24.7421 5.44683 24.4238 5.5534C24.3982 5.33664 24.3982 5.11741 24.4238 4.90065C24.4238 4.6209 24.3092 4.62089 24.2073 4.46104C23.7991 4.45756 23.3979 4.57286 23.0486 4.79407C22.5265 5.00722 22.361 5.0605 22.5265 5.72658C22.6385 6.74788 22.6726 7.77689 22.6284 8.80384V11.8411C22.743 13.493 22.5265 13.6129 24.271 13.4397Z"
            fill="white" />
        <path fill-rule="evenodd" clip-rule="evenodd"
            d="M48.0178 15.2153C45.9157 15.4866 43.8488 16.0004 41.8548 16.7473C41.2308 17.027 40.5814 17.1869 39.9575 17.4666C38.6842 17.9595 37.4872 18.3991 36.2266 18.9053C35.8064 19.0652 32.8013 19.9977 32.2792 20.1176C29.7325 20.7704 25.9125 21.543 23.4804 20.384C22.3217 19.7846 22.2071 21.6496 24.8429 22.3156C26.3843 22.5981 27.9661 22.5253 29.4779 22.1025C30.7512 21.8228 32.2792 21.3299 33.4889 20.9435C34.6986 20.5572 36.1247 20.1176 37.4363 19.7313C37.7546 19.6114 38.0093 19.5048 38.3786 19.3982L40.3268 18.7854C40.696 18.6789 40.9634 18.519 41.2818 18.3991L43.2937 17.9062C43.6629 17.7997 43.9303 17.6931 44.2487 17.5732C46.9147 16.9782 49.6339 16.6834 52.3599 16.694C53.0347 16.694 54.0407 16.8672 54.7283 16.9737C56.0016 17.1336 55.7215 16.4275 54.8811 15.9746C52.696 15.0987 50.3297 14.8369 48.0178 15.2153Z"
            fill="white" />
    </g>
    <defs>
        <clipPath id="clip0_401_752">
            <rect width="90" height="22.5" fill="white" />
        </clipPath>
    </defs>
</svg>