<svg width="150" height="150" viewBox="0 0 150 150" fill="none" xmlns="http://www.w3.org/2000/svg">
<path fill-rule="evenodd" clip-rule="evenodd" d="M90 71.25C83.7868 71.25 78.75 66.2132 78.75 60C78.75 53.7868 83.7868 48.75 90 48.75C96.2132 48.75 101.25 53.7868 101.25 60C101.25 66.2132 96.2132 71.25 90 71.25ZM90 127.5C85.8579 127.5 82.5 124.142 82.5 120C82.5 115.858 85.8579 112.5 90 112.5C94.1421 112.5 97.5 115.858 97.5 120C97.5 124.142 94.1421 127.5 90 127.5ZM90 101.25C83.7868 101.25 78.75 96.2132 78.75 90C78.75 83.7868 83.7868 78.75 90 78.75C96.2132 78.75 101.25 83.7868 101.25 90C101.25 96.2132 96.2132 101.25 90 101.25ZM90 37.5C85.8579 37.5 82.5 34.1421 82.5 30C82.5 25.8579 85.8579 22.5 90 22.5C94.1421 22.5 97.5 25.8579 97.5 30C97.5 34.1421 94.1421 37.5 90 37.5ZM7.5 56.25C9.6 56.25 11.25 57.9 11.25 60C11.25 62.1 9.6 63.75 7.5 63.75C5.4 63.75 3.75 62.1 3.75 60C3.75 57.9 5.4 56.25 7.5 56.25ZM93.75 7.5C93.75 9.6 92.1 11.25 90 11.25C87.9 11.25 86.25 9.6 86.25 7.5C86.25 5.4 87.9 3.75 90 3.75C92.1 3.75 93.75 5.4 93.75 7.5ZM142.5 93.75C140.4 93.75 138.75 92.1 138.75 90C138.75 87.9 140.4 86.25 142.5 86.25C144.6 86.25 146.25 87.9 146.25 90C146.25 92.1 144.6 93.75 142.5 93.75ZM120 127.5C115.858 127.5 112.5 124.142 112.5 120C112.5 115.858 115.858 112.5 120 112.5C124.142 112.5 127.5 115.858 127.5 120C127.5 124.142 124.142 127.5 120 127.5ZM86.25 142.5C86.25 140.4 87.9 138.75 90 138.75C92.1 138.75 93.75 140.4 93.75 142.5C93.75 144.6 92.1 146.25 90 146.25C87.9 146.25 86.25 144.6 86.25 142.5ZM142.5 63.75C140.4 63.75 138.75 62.1 138.75 60C138.75 57.9 140.4 56.25 142.5 56.25C144.6 56.25 146.25 57.9 146.25 60C146.25 62.1 144.6 63.75 142.5 63.75ZM120 97.5C115.858 97.5 112.5 94.1421 112.5 90C112.5 85.8579 115.858 82.5 120 82.5C124.142 82.5 127.5 85.8579 127.5 90C127.5 94.1421 124.142 97.5 120 97.5ZM120 37.5C115.858 37.5 112.5 34.1421 112.5 30C112.5 25.8579 115.858 22.5 120 22.5C124.142 22.5 127.5 25.8579 127.5 30C127.5 34.1421 124.142 37.5 120 37.5ZM30 127.5C25.8579 127.5 22.5 124.142 22.5 120C22.5 115.858 25.8579 112.5 30 112.5C34.1421 112.5 37.5 115.858 37.5 120C37.5 124.142 34.1421 127.5 30 127.5ZM30 97.5C25.8579 97.5 22.5 94.1421 22.5 90C22.5 85.8579 25.8579 82.5 30 82.5C34.1421 82.5 37.5 85.8579 37.5 90C37.5 94.1421 34.1421 97.5 30 97.5ZM11.25 90C11.25 92.1 9.6 93.75 7.5 93.75C5.4 93.75 3.75 92.1 3.75 90C3.75 87.9 5.4 86.25 7.5 86.25C9.6 86.25 11.25 87.9 11.25 90ZM60 37.5C55.8579 37.5 52.5 34.1421 52.5 30C52.5 25.8579 55.8579 22.5 60 22.5C64.1421 22.5 67.5 25.8579 67.5 30C67.5 34.1421 64.1421 37.5 60 37.5ZM30 67.5C25.8579 67.5 22.5 64.1421 22.5 60C22.5 55.8579 25.8579 52.5 30 52.5C34.1421 52.5 37.5 55.8579 37.5 60C37.5 64.1421 34.1421 67.5 30 67.5ZM30 37.5C25.8579 37.5 22.5 34.1421 22.5 30C22.5 25.8579 25.8579 22.5 30 22.5C34.1421 22.5 37.5 25.8579 37.5 30C37.5 34.1421 34.1421 37.5 30 37.5ZM56.25 142.5C56.25 140.4 57.9 138.75 60 138.75C62.1 138.75 63.75 140.4 63.75 142.5C63.75 144.6 62.1 146.25 60 146.25C57.9 146.25 56.25 144.6 56.25 142.5ZM60 127.5C55.8579 127.5 52.5 124.142 52.5 120C52.5 115.858 55.8579 112.5 60 112.5C64.1421 112.5 67.5 115.858 67.5 120C67.5 124.142 64.1421 127.5 60 127.5ZM63.75 7.5C63.75 9.6 62.1 11.25 60 11.25C57.9 11.25 56.25 9.6 56.25 7.5C56.25 5.4 57.9 3.75 60 3.75C62.1 3.75 63.75 5.4 63.75 7.5ZM60 101.25C53.7868 101.25 48.75 96.2132 48.75 90C48.75 83.7868 53.7868 78.75 60 78.75C66.2132 78.75 71.25 83.7868 71.25 90C71.25 96.2132 66.2132 101.25 60 101.25ZM60 71.25C53.7868 71.25 48.75 66.2132 48.75 60C48.75 53.7868 53.7868 48.75 60 48.75C66.2132 48.75 71.25 53.7868 71.25 60C71.25 66.2132 66.2132 71.25 60 71.25ZM120 67.5C115.858 67.5 112.5 64.1421 112.5 60C112.5 55.8579 115.858 52.5 120 52.5C124.142 52.5 127.5 55.8579 127.5 60C127.5 64.1421 124.142 67.5 120 67.5Z" fill="black" fill-opacity="0.25"/>
</svg>
