<svg width="145" height="39" viewBox="0 0 145 39" fill="none" xmlns="http://www.w3.org/2000/svg">
<path d="M90.688 0V20.5094C90.6033 20.6219 107.784 10.0475 107.784 10.0475L90.688 0Z" fill="white"/>
<path d="M126.813 12.8156H122.532C120.125 12.7319 118.615 14.3101 118.671 16.6071V39H112.207V16.6071C112.709 11.4311 117.188 7.39014 122.532 7.36223H126.813V12.8156Z" fill="white"/>
<path d="M130.338 29.3957L130.367 29.4227C130.927 34.5158 135.404 38.501 140.692 38.5298H145V33.0755H140.692C138.313 33.1592 136.215 31.5811 136.27 29.3119V12.594H143.434V6.83704H136.158V0.91428H130.337L130.338 29.3957Z" fill="white"/>
<path d="M54.3403 38.6685H47.88V16.2747H47.9074C47.8509 14.0885 45.445 12.2337 43.0381 12.2337C40.6313 12.2337 38.1971 14.0885 38.1689 16.2747V16.4963C38.1689 16.5521 38.1689 16.5792 38.1971 16.6071H38.1689V38.6685H31.7051V16.6359H31.6769V16.2756C31.6769 10.4348 36.7701 5.70204 43.0372 5.70204C46.3392 5.70204 49.3326 7.03071 51.4034 9.13495C53.4742 7.00367 56.4957 5.64708 59.826 5.64708C66.0649 5.64708 71.1863 10.4078 71.1863 16.2206C71.1863 16.2755 71.1793 16.3375 71.1723 16.3996C71.1652 16.462 71.1581 16.5246 71.1581 16.5801V38.6694H64.6943V16.5809H64.6661C64.8901 14.256 62.3431 12.2076 59.8251 12.2076C57.4747 12.2076 54.5925 13.9515 54.3967 16.0819V16.5521C54.3967 16.5661 54.3897 16.5798 54.3826 16.5936C54.3756 16.6073 54.3685 16.6211 54.3685 16.635H54.3403V38.6685Z" fill="white"/>
<path d="M0 29.6714L6.35178 29.0633C6.79893 31.5819 11.7237 32.9656 13.9065 33.243C15.7251 33.4916 21.4057 32.081 21.4057 29.2011C21.4057 25.4983 17.0524 25.1479 12.6957 24.7973C10.6689 24.6342 8.64141 24.471 7.05116 23.9702C3.02242 22.6974 0.78317 20.3445 0.78317 16.2206C0.78317 9.77094 7.89077 5.5642 13.4867 5.5642C17.5446 5.5642 20.5944 6.42265 22.6652 8.19363C24.7078 9.96461 26.3032 12.1788 26.387 15.1406L19.8667 15.4171C19.4751 13.2309 17.2368 11.6527 14.3546 11.5978C12.3958 11.5707 9.70936 12.5661 8.70217 13.2867C7.27518 14.3109 7.89078 18.297 9.48534 18.823C11.9303 19.6242 14.1735 19.5832 16.2896 19.5446C18.6296 19.5019 20.8143 19.4619 22.9447 20.567C26.2467 22.1451 27.5617 26.2969 27.5617 28.8155C27.5617 36.0382 20.1472 38.7234 13.851 38.7234C8.47903 38.7226 0.699384 35.8445 0 29.6714Z" fill="white"/>
<path d="M107.03 22.5307C106.946 19.5968 106.022 16.8845 104.539 14.5596L104.278 14.6976C102.742 15.5093 101.205 16.3216 99.6415 17.134C100.845 18.7942 101.517 20.8147 101.517 23.001C101.517 28.6201 96.8713 33.216 91.1924 33.216C85.4845 33.216 80.8384 28.6201 80.8384 23.001C80.8384 18.1582 84.2797 14.0893 88.8685 13.0372C88.9217 11.3171 88.9976 9.59704 89.0745 7.85537L89.0925 7.44598C81.3428 8.47018 75.3535 15.0577 75.3535 23.001C75.3535 31.6378 82.4629 38.6685 91.1924 38.6685C95.0985 38.6704 98.8667 37.24 101.769 34.6537V38.6685H107.057V22.5307H107.03Z" fill="white"/>
</svg>
