<svg width="436" height="436" viewBox="0 0 436 436" fill="none" xmlns="http://www.w3.org/2000/svg">
<path fill-rule="evenodd" clip-rule="evenodd" d="M230.656 212.735C229.711 211.565 230.22 209.665 231.622 208.557C233.023 207.45 235.064 207.597 235.925 208.647C236.886 209.812 236.445 211.691 235.049 212.798C233.653 213.905 231.601 213.9 230.656 212.735ZM162.297 200.858C167.007 199.136 171.882 197.905 176.845 197.184C180.513 196.68 184.644 197.074 185.872 200.087C187.095 203.094 185.195 208.521 174.452 213.307C163.997 217.968 150.677 220.219 142.369 220.398C140.906 222.155 139.644 224.07 138.606 226.108C137.64 227.96 137.194 229.813 137.262 231.178C137.414 234.243 139.818 235.875 143.508 235.576C145.502 235.413 147.817 234.521 150.336 233.193C155.343 230.553 161.179 226.129 166.868 222.04C167.65 221.479 169.356 220.319 169.482 220.235C172.799 218.057 175.801 216.661 179.322 215.837C180.445 215.574 182.377 215.291 184.502 215.359C187.63 215.454 190.643 216.036 192.259 217.023C191.467 217.516 190.721 218.183 190.296 218.555C185.998 222.313 182.503 226.717 180.744 229.467C180.241 230.254 179.91 231.34 180.304 231.697C180.634 232.002 181.353 232.007 182.461 231.304C184.586 229.955 189.152 225.725 191.929 223.342C192.579 222.786 196.463 219.873 197.738 219.112L197.817 219.059C200.552 217.432 203.05 216.577 204.776 216.11C208.686 215.05 212.292 215.228 212.896 215.658C216.388 212.431 219.811 209.129 223.161 205.755C224.793 205.755 227.927 205.75 229.653 205.713C229.081 206.097 228.532 206.516 228.011 206.967C226.326 208.589 220.726 213.968 216.207 218.545C211.311 223.499 208.566 226.696 207.122 229.204C206.388 230.474 206.078 231.503 206.519 231.865C206.996 232.264 207.973 231.939 209.091 231.199C211.625 229.519 218.674 223.142 221.13 220.691C221.13 220.691 225.234 216.603 226.153 215.753C227.785 215.758 230.782 215.748 232.503 215.711C232.036 216.026 231.181 216.614 230.824 216.955C227.523 220.13 223.056 224.769 221.104 227.561C219.566 229.766 219.766 231.151 220.296 231.708C221.309 232.768 224.515 232.154 229.197 229.593C228.808 227.483 229.548 224.229 231.202 221.678C234.744 216.209 242.16 209.35 247.881 206.474C250.752 205.03 252.594 204.789 253.727 205.697C255.092 206.789 254.677 209.308 253.166 211.664C248.579 218.792 243.551 223.079 233.784 229.377C233.779 231.052 234.708 232.164 237.106 232.164C240.239 232.164 243.383 231.067 246.679 229.414C246.364 227.336 247.204 224.092 248.784 221.657C252.3 216.236 259.758 209.324 265.447 206.458C268.423 204.962 270.16 204.815 271.283 205.692C272.711 206.804 272.233 209.371 270.622 211.864C266.176 218.75 261.175 223.016 251.24 229.425C251.082 231.235 252.022 232.128 253.449 232.086C255.722 232.023 258.561 230.091 262.765 226.281C264.14 225.037 268.732 220.928 269.829 220.214C273.188 218.01 276.164 216.64 279.665 215.805C281.829 215.343 284.052 215.21 286.256 215.412C288.739 215.606 291.074 216.115 292.607 216.986C291.762 217.516 290.954 218.235 290.586 218.555C286.953 221.755 283.756 225.419 281.076 229.451C280.52 230.327 280.268 231.335 280.63 231.671C281.019 232.023 281.774 231.897 282.756 231.277C284.881 229.928 293.142 222.392 293.226 222.308C296.585 219.022 300.343 216.629 304.284 215.417C307.858 214.32 311.475 214.504 312.566 216.934C314.13 220.413 310.708 224.743 305.465 225.709L304.961 223.872C307.538 222.187 309.879 218.923 308.682 217.637C307.811 216.697 305.948 217.17 304.416 218.052C301.76 219.579 298.023 223.074 295.866 226.727C294.459 229.099 294.281 231.519 295.614 232.736C296.926 233.933 298.852 234.001 300.71 233.55C304.82 232.553 308.299 229.85 311.154 226.785L311.984 229.157C308.829 232.437 305.145 234.736 301.33 235.712C297.031 236.814 293.866 236.331 291.814 234.206C290.413 232.757 289.867 230.39 290.271 227.96C287.794 230.264 285.878 231.996 284.346 233.056C282.441 234.374 279.995 235.329 278.237 234.143C276.458 232.946 276.762 229.881 277.471 228.506C275.537 230.28 273.439 231.865 271.204 233.24C268.244 235.04 265.337 235.135 263.993 233.492C263.143 232.448 262.823 230.747 263.474 228.627C261.107 230.731 258.771 232.605 256.556 233.697C255.233 234.386 253.754 234.723 252.263 234.673C249.655 234.552 248.196 233.256 247.366 231.54C242.863 233.907 239.662 234.683 236.366 234.683C233.212 234.683 231.123 233.366 230.021 231.639C228.211 232.749 226.265 233.621 224.232 234.232C221.393 235.014 218.6 234.988 217.225 233.581C216.207 232.542 215.467 230.564 216.527 227.719C213.898 230.186 211.993 231.928 210.392 233.051C208.545 234.342 205.721 235.444 204.047 234.106C202.121 232.563 202.819 229.635 203.512 228.464C202.934 229.005 202.388 229.461 201.848 229.923C200.36 231.189 198.783 232.347 197.13 233.387C194.348 235.161 192.07 235.004 190.737 234.164C189.047 233.109 188.958 230.585 189.656 228.328C187.331 230.464 185.463 232.086 184.009 233.093C182.051 234.453 179.663 235.35 177.879 234.148C175.921 232.831 176.645 229.451 177.097 228.58C176.236 229.367 175.291 230.112 174.331 230.847C173.223 231.705 172.072 232.505 170.883 233.245C168.08 234.946 165.104 235.261 163.703 233.55C162.606 232.206 162.307 229.918 163.834 226.937C154.902 233.943 147.528 238.719 140.747 238.719C133.583 238.719 129.72 232.117 131.877 225.389C132.507 223.396 133.417 221.503 134.58 219.768C128.009 218.592 124.388 216.309 124.026 212.263C123.685 208.437 126.776 205.734 129.085 204.212C130.871 203.027 132.765 202.015 134.743 201.189C140.039 198.995 147.906 197.557 154.004 197.762L155.059 200.092C154.786 200.045 154.487 200.018 154.162 199.987C151.852 199.803 147.727 200.134 143.502 201.183C139.724 202.118 135.556 203.781 132.99 205.975C129.369 209.072 129.5 212.194 130.744 214.042C131.867 215.706 133.478 216.682 136.491 217.254C137.603 215.957 138.889 214.698 140.353 213.407C146.63 207.901 154.492 203.676 162.297 200.858ZM144.799 217.8C156.161 217.411 166.264 212.651 174.515 208.636C180.33 205.807 184.208 202.726 183.332 200.695C183.054 200.05 182.203 199.703 181.159 199.604C179.85 199.501 178.533 199.563 177.239 199.787C173.612 200.323 169.466 201.567 164.674 203.934C162.953 204.784 161.152 205.776 159.258 206.936C155.689 209.119 151.915 211.801 147.916 215.055C146.84 215.927 145.8 216.843 144.799 217.8ZM251.828 208.967C253.056 207.203 252.169 206.573 250.473 207.697C246.626 210.242 243.063 213.664 240.208 216.907C237.279 220.235 234.75 224.098 234.12 226.543C237.321 224.392 240.475 221.563 243.199 218.844C246.931 215.102 250.258 211.224 251.828 208.967ZM269.399 208.967C270.622 207.214 269.766 206.558 268.034 207.697C261.584 211.943 253.271 220.949 251.66 226.606C254.835 224.533 258.687 221.027 262.046 217.553C265.3 214.189 268.055 210.893 269.399 208.967ZM284.913 218.151C284.629 217.931 283.669 217.647 282.556 217.637C281.349 217.626 279.895 218.041 278.536 218.776C273.723 221.395 270.128 224.88 267.641 228.826C266.827 230.123 266.89 231.172 267.242 231.492C267.73 231.939 268.675 231.823 270.344 231.004C273.912 229.257 279.607 223.709 284.913 218.151ZM210.723 218.214C210.272 217.925 209.756 217.752 209.222 217.71C207.876 217.563 206.516 217.807 205.306 218.414C201.26 220.356 197.266 223.515 193.96 228.364C193.036 229.719 192.742 231.136 193.241 231.603C193.776 232.101 194.952 231.928 196.358 231.12C201.013 228.438 206.041 223.043 210.723 218.214ZM178.593 224.187C180.555 222.308 182.597 220.251 184.581 218.167C184.266 217.936 183.227 217.668 182.198 217.663C181.033 217.653 179.438 218.12 178.178 218.802C173.75 221.153 170.007 224.613 167.314 228.842C166.495 230.154 166.537 231.157 166.931 231.519C167.429 231.975 168.353 231.855 170.001 231.046C172.226 229.949 175.297 227.341 178.593 224.187ZM310.446 236.169C309.382 236.169 308.52 235.306 308.52 234.243C308.52 233.179 309.382 232.316 310.446 232.316C311.51 232.316 312.372 233.179 312.372 234.243C312.372 235.306 311.51 236.169 310.446 236.169ZM310.446 235.943C311.385 235.943 312.146 235.182 312.146 234.243C312.146 233.303 311.385 232.542 310.446 232.542C309.507 232.542 308.745 233.303 308.745 234.243C308.745 235.182 309.507 235.943 310.446 235.943ZM309.732 235.334V233.172H310.677C310.86 233.172 311.039 233.182 311.202 233.282C311.364 233.371 311.443 233.566 311.443 233.744C311.443 234.169 311.144 234.327 310.761 234.337L311.417 235.334H311.102L310.483 234.337H309.994V235.334H309.732ZM309.994 233.366V234.132H310.399C310.703 234.132 311.17 234.185 311.17 233.744C311.17 233.413 310.876 233.371 310.609 233.371H309.994V233.366Z" fill="white"/>
</svg>
