<svg width="436" height="436" viewBox="0 0 436 436" fill="none" xmlns="http://www.w3.org/2000/svg">
<path fill-rule="evenodd" clip-rule="evenodd" d="M151.598 220.844V214.325C151.598 212.244 153.065 211 155.089 211H172.677C174.701 211 176.168 212.244 176.168 214.325V220.844C176.168 222.925 174.701 224.168 172.677 224.168H155.089C153.065 224.168 151.598 222.925 151.598 220.844ZM124 211.001H145.562C147.623 211.001 148.515 212.969 148.515 214.789V216.312C148.515 218.615 147.141 220.287 144.745 220.287H127.01V224.168H124V211.001ZM179.418 211.001H201.072C202.614 211.001 204.026 212.022 204.026 213.638V217.056C204.026 218.486 202.911 219.246 201.648 219.581C203.468 220.436 203.84 222.329 204.026 224.168H201.072C200.942 222.181 200.088 220.287 197.804 220.287H182.427V224.168H179.418V211.001ZM231.269 211.001V213.638H211.25C210.451 213.638 210.116 214.214 210.116 214.975C210.116 215.699 210.488 216.257 211.25 216.257H227.574C230.249 216.257 231.697 217.538 231.697 220.268C231.697 222.553 230.472 224.168 228.095 224.168H207.573V221.531H227.575C228.262 221.531 228.56 220.937 228.56 220.324C228.56 219.62 228.412 218.876 227.575 218.876H210.618C208.427 218.876 207.164 217.186 207.164 215.087C207.164 212.468 208.575 211.002 211.251 211.002L231.269 211.001ZM258.235 211.001V213.638H238.475C238.011 213.638 237.843 214.083 237.843 214.474V220.882C237.843 221.273 238.086 221.532 238.475 221.532H258.235V224.169H238.475C236.32 224.169 234.855 222.683 234.855 220.51V214.865C234.855 212.377 235.912 211.002 238.475 211.002L258.235 211.001ZM261.466 211.001H264.494V216.126H281.971V211.001H285.071V224.168H281.971V218.763H264.494V224.168H261.466V211.001ZM288.247 211.001H312.947V213.638H291.255V216.183H312.947V218.801H291.255V221.531H312.947V224.168H288.247V211.001ZM156.352 221.531H171.619C172.547 221.531 173.308 221.123 173.308 220.063V215.105C173.308 214.047 172.566 213.638 171.619 213.638H156.352C155.405 213.638 154.644 214.047 154.644 215.105V220.063C154.644 221.123 155.423 221.531 156.352 221.531ZM127.01 213.638V217.649H144.169C144.913 217.649 145.562 217.353 145.562 216.516V215.032C145.562 214.159 145.042 213.639 144.169 213.639L127.01 213.638ZM182.427 217.649H200.33C200.924 217.649 201.072 217.147 201.072 216.647V214.863C201.072 214.009 200.757 213.637 199.884 213.637H182.427V217.649Z" fill="white"/>
</svg>
