<svg width="436" height="436" viewBox="0 0 436 436" fill="none" xmlns="http://www.w3.org/2000/svg">
<path d="M240.296 194V219.172C240.193 219.31 261.089 206.332 261.089 206.332L240.296 194Z" fill="white"/>
<path d="M284.232 209.729H279.024C276.097 209.626 274.261 211.563 274.33 214.383V241.867H266.467V214.383C267.078 208.03 272.525 203.07 279.024 203.036H284.232V209.729Z" fill="white"/>
<path d="M288.518 230.079L288.554 230.112C289.235 236.363 294.68 241.254 301.111 241.29H306.351V234.595H301.111C298.218 234.698 295.666 232.761 295.733 229.976V209.457H304.446V202.391H295.597V195.122H288.517L288.518 230.079Z" fill="white"/>
<path d="M196.089 241.46H188.232V213.975H188.266C188.197 211.291 185.271 209.015 182.344 209.015C179.416 209.015 176.456 211.291 176.422 213.975V214.247C176.422 214.315 176.422 214.348 176.456 214.383H176.422V241.46H168.56V214.418H168.526V213.976C168.526 206.807 174.72 200.998 182.342 200.998C186.358 200.998 189.999 202.629 192.517 205.212C195.036 202.596 198.711 200.931 202.761 200.931C210.349 200.931 216.578 206.774 216.578 213.908C216.578 213.976 216.569 214.052 216.561 214.128C216.552 214.205 216.543 214.281 216.543 214.35V241.461H208.682V214.351H208.648C208.92 211.497 205.822 208.983 202.76 208.983C199.902 208.983 196.396 211.123 196.158 213.738V214.315C196.158 214.332 196.149 214.349 196.141 214.366C196.132 214.383 196.124 214.4 196.124 214.417H196.089V241.46Z" fill="white"/>
<path d="M130 230.417L137.725 229.671C138.269 232.762 144.259 234.46 146.913 234.801C149.125 235.106 156.034 233.375 156.034 229.84C156.034 225.295 150.739 224.865 145.441 224.435C142.976 224.235 140.51 224.034 138.576 223.42C133.676 221.858 130.953 218.97 130.953 213.908C130.953 205.992 139.597 200.829 146.403 200.829C151.338 200.829 155.047 201.883 157.566 204.056C160.05 206.23 161.99 208.948 162.092 212.583L154.162 212.922C153.686 210.239 150.964 208.302 147.458 208.235C145.076 208.201 141.809 209.423 140.584 210.307C138.848 211.565 139.597 216.457 141.536 217.102C144.51 218.086 147.238 218.036 149.812 217.988C152.658 217.936 155.315 217.887 157.906 219.243C161.922 221.18 163.521 226.276 163.521 229.367C163.521 238.231 154.503 241.527 146.846 241.527C140.312 241.526 130.851 237.994 130 230.417Z" fill="white"/>
<path d="M260.171 221.653C260.069 218.052 258.946 214.723 257.142 211.87L256.824 212.039C254.956 213.035 253.087 214.032 251.185 215.029C252.649 217.067 253.467 219.547 253.467 222.23C253.467 229.127 247.816 234.768 240.909 234.768C233.967 234.768 228.317 229.127 228.317 222.23C228.317 216.287 232.502 211.293 238.083 210.001C238.148 207.89 238.24 205.779 238.334 203.641L238.355 203.139C228.93 204.396 221.646 212.481 221.646 222.23C221.646 232.831 230.292 241.46 240.909 241.46C245.66 241.462 250.243 239.707 253.772 236.532V241.46H260.204V221.653H260.171Z" fill="white"/>
</svg>
